<svg width="212" height="60" viewBox="0 0 212 60" fill="none" xmlns="http://www.w3.org/2000/svg">
<path d="M0.736 43.096V41.56C0.736 41.0907 0.693333 40.6427 0.608 40.216C0.821334 39.832 0.842667 38.68 0.672 36.76C0.586667 35.736 0.501334 34.904 0.416 34.264C0.373334 33.624 0.352 33.176 0.352 32.92V32.408C0.352 32.2373 0.352 32.0667 0.352 31.896C0.394667 31.6827 0.437334 31.4693 0.48 31.256C0.522667 30.2747 0.586667 29.6133 0.672 29.272C0.714667 29.144 0.821333 28.9733 0.992 28.76C1.16267 28.504 1.248 28.248 1.248 27.992C1.248 26.072 1.33333 24.024 1.504 21.848C1.71733 19.6293 1.84533 17.56 1.888 15.64C1.93067 14.1467 1.952 12.952 1.952 12.056C1.952 11.16 1.97333 10.6053 2.016 10.392C2.05867 9.83733 2.05867 9.24 2.016 8.6C2.016 7.91733 2.016 7.27733 2.016 6.68C2.016 6.552 1.99467 6.46667 1.952 6.424L3.616 5.08H9.184C9.78133 4.99467 10.208 4.97333 10.464 5.016C10.72 5.05866 10.8907 5.12266 10.976 5.208L12.384 6.232C12.768 6.70133 13.088 6.97866 13.344 7.064C13.6427 7.10667 13.8773 7.04266 14.048 6.872C14.2613 6.65866 14.4533 6.40266 14.624 6.104C14.7947 5.76266 14.9653 5.44267 15.136 5.144L18.528 5.336L23.584 7.448C23.7547 7.61867 23.904 7.78933 24.032 7.96C24.16 8.088 24.288 8.19466 24.416 8.28C24.6293 8.49333 24.8213 8.68533 24.992 8.856C25.2053 9.02667 25.3547 9.112 25.44 9.112C25.5253 9.112 25.9307 9.21867 26.656 9.432C27.424 9.64533 28.1067 10.2427 28.704 11.224C29.1733 11.224 29.6427 11.3733 30.112 11.672C30.624 11.9707 31.0507 12.312 31.392 12.696C31.7333 13.0373 31.9893 13.3787 32.16 13.72C32.3733 14.0187 32.4373 14.1893 32.352 14.232C31.6267 14.9147 31.392 15.512 31.648 16.024C31.9467 16.536 32.3733 16.8987 32.928 17.112C33.0987 17.8373 33.44 18.3493 33.952 18.648C34.464 18.904 34.848 19.096 35.104 19.224C35.104 19.352 35.1467 20.0133 35.232 21.208C35.3173 22.36 35.4453 24.0453 35.616 26.264C35.7013 27.3733 35.7867 28.3547 35.872 29.208C35.9573 30.0187 36.0427 30.7013 36.128 31.256C36.2133 31.5973 36.2773 31.9173 36.32 32.216C36.3627 32.472 36.4053 32.7067 36.448 32.92C36.4907 33.1333 35.7653 34.3493 34.272 36.568C32.736 38.7013 31.968 40.1307 31.968 40.856H28.576C28.4053 40.856 28.192 40.9413 27.936 41.112C27.68 41.24 27.424 41.3893 27.168 41.56L26.144 42.2C26.016 42.2427 25.888 42.264 25.76 42.264C25.632 42.264 25.4827 42.2853 25.312 42.328C25.056 42.3707 24.7147 42.4133 24.288 42.456C23.904 42.4987 23.456 42.5627 22.944 42.648C21.8773 42.8613 20.9813 42.9893 20.256 43.032C19.5307 43.0747 18.9333 43.0533 18.464 42.968C18.4213 42.4133 16.9707 42.584 14.112 43.48C13.3867 43.6933 12.64 43.8853 11.872 44.056C11.104 44.184 10.4 44.2907 9.76 44.376C9.376 44.4613 8.992 44.5253 8.608 44.568C8.26667 44.6107 7.92533 44.6533 7.584 44.696L6.176 44.376C5.92 44.4187 5.664 44.4827 5.408 44.568C5.152 44.6107 4.98133 44.632 4.896 44.632C4.768 44.632 4.576 44.5893 4.32 44.504C4.10667 44.4187 3.91467 44.376 3.744 44.376C3.65867 44.376 3.46667 44.3973 3.168 44.44C2.912 44.44 2.74133 44.4827 2.656 44.568L0.736 43.096ZM13.152 40.664C13.5787 40.4933 14.0267 40.2587 14.496 39.96C15.008 39.6187 15.4347 39.512 15.776 39.64H17.568C17.6533 39.64 17.8453 39.5333 18.144 39.32C18.4427 39.064 18.656 38.936 18.784 38.936C18.9547 38.936 19.04 39.0213 19.04 39.192C19.04 39.32 19.2747 39.384 19.744 39.384C19.9147 39.384 20.32 39.2987 20.96 39.128C21.6 38.9147 22.2827 38.6373 23.008 38.296C23.776 37.9547 24.3733 37.6987 24.8 37.528C25.2693 37.3573 25.5467 37.2507 25.632 37.208C25.6747 37.1227 25.696 37.016 25.696 36.888C25.7387 36.76 25.8027 36.6107 25.888 36.44C25.9733 36.184 26.0587 35.8853 26.144 35.544C26.272 35.2027 26.4427 34.7973 26.656 34.328C26.9547 33.304 27.1893 32.5147 27.36 31.96C27.5307 31.4053 27.616 31.0213 27.616 30.808L25.568 23.256C25.568 22.9573 25.5893 22.7227 25.632 22.552C25.632 22.3387 25.632 22.0827 25.632 21.784C25.6747 21.4427 25.7173 21.0373 25.76 20.568C25.9307 18.7333 26.0373 17.816 26.08 17.816C26.0373 17.7733 25.888 17.5387 25.632 17.112C25.4187 16.6853 25.0987 16.1093 24.672 15.384C24.2453 14.616 23.8827 13.8267 23.584 13.016C23.328 12.1627 23.1147 11.736 22.944 11.736L17.888 8.472H13.088C13.088 8.984 12.9813 9.28267 12.768 9.368C12.5547 9.41067 12.448 9.47467 12.448 9.56V10.712C12.448 11.0533 12.448 11.4587 12.448 11.928C12.448 12.3973 12.4267 12.9307 12.384 13.528V17.752C11.6587 18.136 11.2533 18.584 11.168 19.096C11.168 19.48 10.976 20.0773 10.592 20.888C10.5067 20.9733 10.464 21.1227 10.464 21.336C10.464 21.9333 10.464 22.36 10.464 22.616C10.5067 22.8293 10.464 23.2133 10.336 23.768C10.2507 23.8533 10.336 24.6 10.592 26.008C10.848 27.5013 10.9973 28.2693 11.04 28.312C10.9973 28.5253 10.9333 28.824 10.848 29.208C10.8053 29.592 10.72 30.04 10.592 30.552C10.464 31.064 10.3787 31.448 10.336 31.704C10.2933 31.96 10.272 32.1307 10.272 32.216C10.272 32.728 10.336 33.6453 10.464 34.968C10.5067 35.6507 10.528 36.248 10.528 36.76C10.5707 37.2293 10.592 37.5707 10.592 37.784C10.6773 38.1253 10.7413 38.4667 10.784 38.808C10.8693 39.1493 10.9547 39.512 11.04 39.896L13.152 40.664ZM38.89 5.656C38.9753 5.31466 39.018 4.99466 39.018 4.696C39.0607 4.35467 39.1033 4.01333 39.146 3.672C39.146 3.37333 39.146 3.11733 39.146 2.904C39.1887 2.69067 39.21 2.49867 39.21 2.328L39.53 1.624C39.658 1.58133 39.8287 1.56 40.042 1.56C40.2553 1.56 40.5113 1.53866 40.81 1.496C41.706 1.45333 42.282 1.34667 42.538 1.176C42.538 1.13333 42.6447 1.048 42.858 0.919998C42.986 0.791997 43.0927 0.706664 43.178 0.663998C43.2207 0.663998 43.37 0.685331 43.626 0.727997C43.882 0.770663 44.2233 0.855996 44.65 0.983997C45.3753 1.15466 45.8873 1.24 46.186 1.24C46.57 1.24 46.7833 1.21866 46.826 1.176C46.8687 1.13333 46.9967 1.13333 47.21 1.176L47.786 2.264L48.362 5.528L47.018 7.768C46.9753 7.81066 46.9327 7.85333 46.89 7.896C46.89 7.93867 46.8473 7.98133 46.762 8.024C46.5487 8.152 46.2927 8.344 45.994 8.6L45.802 8.792L43.882 8.984C43.626 8.89867 43.3273 8.81333 42.986 8.728C42.6447 8.6 42.2393 8.45067 41.77 8.28C41.3007 8.10933 40.8953 7.96 40.554 7.832C40.2127 7.66133 39.914 7.53333 39.658 7.448L39.338 7.128L38.89 5.656ZM46.826 16.664L46.57 18.968L46.826 19.928L46.442 20.952L46.634 22.424L46.314 23.64L46.506 24.024L46.25 26.904L45.994 32.984C45.994 33.2827 45.9513 33.6667 45.866 34.136C45.7807 34.5627 45.7167 35.032 45.674 35.544C45.6313 36.0133 45.6313 36.504 45.674 37.016C45.7167 37.4853 45.8447 37.8907 46.058 38.232C46.0153 38.872 45.9513 39.6187 45.866 40.472C45.7807 41.3253 45.6313 42.3067 45.418 43.416C45.0767 43.8853 44.714 44.312 44.33 44.696C43.9887 45.0373 43.3273 45.2293 42.346 45.272C41.7913 45.3147 41.2367 45.3573 40.682 45.4C40.17 45.4427 39.6793 45.5067 39.21 45.592C38.954 45.6347 38.698 45.6773 38.442 45.72C38.186 45.7627 37.9087 45.8267 37.61 45.912L36.01 43.864C36.0527 43.6507 36.1167 43.0747 36.202 42.136C36.33 41.1547 36.4367 40.0027 36.522 38.68C36.6073 37.3573 36.65 35.9493 36.65 34.456C36.6927 32.9627 36.65 31.576 36.522 30.296L36.906 29.08L37.482 26.264L37.674 24.024L38.058 23.256L38.122 22.68L38.506 20.952L38.826 17.432L44.586 15.192L46.826 16.664ZM79.182 42.072L70.222 43.16L68.366 40.152C68.366 39.5973 67.9393 39.6187 67.086 40.216C66.8727 40.344 66.6593 40.5573 66.446 40.856C66.2327 41.1547 66.0193 41.4533 65.806 41.752C65.678 41.9227 65.55 42.0933 65.422 42.264C65.294 42.4347 65.166 42.6267 65.038 42.84C63.7153 43.8213 62.35 44.4613 60.942 44.76C59.5767 45.0587 58.4033 44.8667 57.422 44.184C56.6967 44.0987 56.206 43.928 55.95 43.672C55.822 43.5867 55.6513 43.4373 55.438 43.224L51.342 42.968L49.614 42.136L48.014 38.104L48.334 36.76L46.926 31.128L49.614 26.648L51.79 24.664C52.6007 24.2373 53.5393 23.896 54.606 23.64C55.6727 23.384 56.7393 23.2133 57.806 23.128C58.8727 23 59.8967 22.9787 60.878 23.064C61.8593 23.1067 62.67 23.2347 63.31 23.448C63.31 24.1307 63.5233 24.5787 63.95 24.792C64.3767 25.0053 65.2087 25.24 66.446 25.496C66.8727 24.7707 67.086 23.896 67.086 22.872C67.086 21.8053 66.894 20.696 66.51 19.544L65.486 16.28C65.1447 16.152 64.6113 15.9387 63.886 15.64C63.2033 15.2987 62.6273 15.0213 62.158 14.808L59.406 15.256L56.59 15.832L55.95 14.808L56.654 13.144L57.102 12.12L57.998 11.928L60.942 11.416L63.566 12.312L66.446 11.864L72.014 13.528L74.382 17.112L75.214 27.288L75.022 30.488L76.43 37.976L77.262 38.36H79.246L80.078 40.6L79.182 42.072ZM55.694 31.64C55.4807 32.7493 55.4807 33.688 55.694 34.456C55.95 35.224 56.3553 35.864 56.91 36.376L57.87 38.36C58.638 38.616 59.3633 38.808 60.046 38.936C60.7287 39.064 61.4327 39.0853 62.158 39C62.926 38.872 63.7153 38.6373 64.526 38.296C65.3793 37.912 66.3607 37.3573 67.47 36.632L67.598 33.368L66.446 27.672C65.8487 27.4587 65.3153 27.352 64.846 27.352C64.4193 27.352 63.9927 27.3947 63.566 27.48C63.054 27.608 62.4567 27.7147 61.774 27.8C61.0913 27.8853 60.3873 27.992 59.662 28.12C58.9793 28.2053 58.3393 28.3333 57.742 28.504C57.1873 28.632 56.782 28.824 56.526 29.08L55.694 31.64ZM99.6345 16.92V19.864H97.9705L95.5385 21.784C93.4478 22.0827 91.7412 22.5093 90.4185 23.064C89.0958 23.576 88.4772 24.3013 88.5625 25.24C88.4772 25.4533 88.4345 25.7093 88.4345 26.008C88.4345 26.264 88.5838 26.392 88.8825 26.392L87.6025 32.792L87.0265 33.496V40.6L86.6425 44.184L85.3625 45.464L78.0665 44.952L76.4665 42.776L76.9145 41.624L76.6585 38.104L77.4265 31.64L78.0665 26.904C78.0665 26.776 78.0878 26.6693 78.1305 26.584C78.1305 26.4987 78.1305 26.392 78.1305 26.264C78.1732 26.136 78.1945 26.0293 78.1945 25.944C78.4078 25.7733 78.5358 25.3893 78.5785 24.792C78.6638 24.1947 78.6852 23.8107 78.6425 23.64C78.6425 23.3413 78.6212 23.064 78.5785 22.808C78.5785 22.552 78.4932 21.9973 78.3225 21.144C78.2798 20.888 78.1305 20.5893 77.8745 20.248C77.6612 19.864 77.4265 19.5227 77.1705 19.224L78.0025 17.24H79.2185L85.8105 16.024L87.4105 16.792C87.2825 17.5173 87.2612 18.136 87.3465 18.648C87.4745 19.1173 87.6452 19.48 87.8585 19.736C88.1145 19.992 88.3918 20.1627 88.6905 20.248C88.9892 20.2907 89.2452 20.248 89.4585 20.12L90.6105 19.48C90.8238 19.3947 90.8878 19.16 90.8025 18.776C90.7598 18.392 90.7812 17.9013 90.8665 17.304L98.8025 15.896L99.6345 16.92ZM128.545 16.856L133.473 17.816L132.449 20.312V20.504C132.492 20.888 132.257 22.168 131.745 24.344C131.702 24.472 131.51 24.664 131.169 24.92C130.87 25.176 130.508 25.4747 130.081 25.816C129.697 26.1573 129.313 26.52 128.929 26.904C128.545 27.2453 128.289 27.5867 128.161 27.928L118.881 42.136L116.961 44.056C116.833 44.0987 116.705 44.1627 116.577 44.248C116.492 44.2907 116.406 44.312 116.321 44.312L116.897 45.144L113.889 49.688L109.985 54.808L109.025 56.152L101.473 55.768L100.321 52.504L102.497 51.928L104.033 50.328L105.185 49.496V47.896C105.356 47.8107 105.505 47.704 105.633 47.576C105.804 47.4907 105.974 47.384 106.145 47.256C106.401 47.0427 106.678 46.7867 106.977 46.488C107.276 46.1893 107.553 45.8267 107.809 45.4C108.748 43.736 108.769 42.904 107.873 42.904C108.214 42.648 108.449 42.456 108.577 42.328C109.004 41.9013 109.281 41.3467 109.409 40.664C109.58 39.3413 109.494 38.488 109.153 38.104C108.94 38.0613 108.47 37.6133 107.745 36.76C107.361 36.3333 107.041 35.9707 106.785 35.672C106.529 35.3733 106.316 35.1813 106.145 35.096C105.889 34.3707 105.505 33.56 104.993 32.664C104.524 31.768 103.99 30.872 103.393 29.976C102.838 29.0373 102.262 28.12 101.665 27.224C101.068 26.328 100.513 25.496 100.001 24.728C98.465 22.424 97.121 20.8667 95.969 20.056L95.521 18.328C96.033 17.7733 96.673 17.4533 97.441 17.368C98.2943 17.2827 98.8917 16.984 99.233 16.472L102.881 15.32C103.649 15.7467 104.353 16.2373 104.993 16.792C105.889 17.6027 106.806 18.1573 107.745 18.456C107.745 19.0107 107.916 19.5013 108.257 19.928C108.598 20.3547 108.982 20.76 109.409 21.144C109.836 21.4853 110.241 21.8053 110.625 22.104C111.052 22.4027 111.35 22.7013 111.521 23C111.521 23.0427 111.542 23.192 111.585 23.448C111.67 23.6613 111.713 23.896 111.713 24.152C111.756 24.408 111.756 24.6427 111.713 24.856C111.713 25.0267 111.649 25.112 111.521 25.112C111.308 25.112 111.329 25.2187 111.585 25.432C111.841 25.6453 112.332 25.9227 113.057 26.264C113.057 26.392 113.142 26.6267 113.313 26.968C113.526 27.3093 113.782 27.6933 114.081 28.12C114.38 28.5467 114.678 28.9947 114.977 29.464C115.276 29.8907 115.532 30.296 115.745 30.68C116.214 31.576 116.534 32.4293 116.705 33.24C116.876 34.008 117.025 34.4347 117.153 34.52C117.238 34.52 117.409 34.4773 117.665 34.392C117.921 34.264 118.198 34.136 118.497 34.008C118.796 33.8373 119.052 33.6453 119.265 33.432C119.478 33.176 119.585 32.92 119.585 32.664C119.585 32.408 119.5 32.1947 119.329 32.024L118.881 31.448C118.753 31.2347 118.646 31.0427 118.561 30.872C118.476 30.7013 118.476 30.5307 118.561 30.36C119.03 29.976 119.372 29.656 119.585 29.4C119.798 29.1013 120.076 28.7173 120.417 28.248C120.502 28.0347 120.673 27.8 120.929 27.544C121.228 27.2453 121.526 26.968 121.825 26.712C122.166 26.456 122.465 26.2427 122.721 26.072C122.977 25.8587 123.105 25.7307 123.105 25.688C123.446 25.0053 123.724 24.344 123.937 23.704C124.15 23.0213 124.428 22.0613 124.769 20.824C124.812 20.6107 124.918 20.3973 125.089 20.184C125.302 19.9707 125.516 19.7787 125.729 19.608C125.985 19.3947 126.198 19.224 126.369 19.096C126.582 18.9253 126.71 18.776 126.753 18.648C126.796 18.5627 126.817 18.52 126.817 18.52C126.817 18.4773 126.838 18.4133 126.881 18.328L128.545 16.856ZM130.267 42.84C130.31 42.6267 130.331 42.4347 130.331 42.264C130.374 42.0507 130.416 41.8373 130.459 41.624C130.715 39.832 130.843 38.616 130.843 37.976C130.843 37.848 130.8 37.6347 130.715 37.336C130.672 37.0373 130.63 36.824 130.587 36.696L131.163 22.424C130.95 22.1253 130.907 21.7413 131.035 21.272C131.163 20.76 131.355 20.44 131.611 20.312C131.782 19.7147 132.016 19.032 132.315 18.264C132.656 17.496 132.784 16.6213 132.699 15.64C132.656 15.1707 132.699 14.7867 132.827 14.488C132.955 14.1467 133.062 13.9333 133.147 13.848L133.659 13.336C134 12.9947 134.192 12.696 134.235 12.44C134.278 12.1413 134.235 11.864 134.107 11.608C133.979 11.352 133.808 11.16 133.595 11.032C133.424 10.8613 133.254 10.7333 133.083 10.648C132.955 10.52 132.891 10.4347 132.891 10.392C132.976 10.136 133.019 9.92267 133.019 9.752C133.019 9.58133 132.891 9.38933 132.635 9.176L132.763 7.64C132.976 7.34133 133.36 7.192 133.915 7.192C134.512 7.14933 134.982 7.128 135.323 7.128C135.451 7.128 135.664 7.128 135.963 7.128C136.262 7.08533 136.603 7.064 136.987 7.064L138.139 7C138.352 6.95733 138.523 6.936 138.651 6.936C138.822 6.936 138.971 6.936 139.099 6.936L139.803 6.616C140.102 6.44533 140.336 6.36 140.507 6.36C140.635 6.36 140.87 6.424 141.211 6.552C141.595 6.63733 142 6.808 142.427 7.064L142.107 13.272L141.467 18.712C141.467 18.8827 141.36 19.2453 141.147 19.8C140.934 20.312 140.72 20.7387 140.507 21.08C140.422 21.1653 140.379 21.336 140.379 21.592C140.379 21.8053 140.379 22.0613 140.379 22.36C140.422 22.616 140.443 22.872 140.443 23.128C140.486 23.384 140.486 23.576 140.443 23.704L139.995 28.376C139.995 28.4613 139.952 28.5467 139.867 28.632C139.824 28.6747 139.76 28.824 139.675 29.08C139.632 29.2933 139.568 29.6133 139.483 30.04C139.398 30.4667 139.334 31.064 139.291 31.832C139.206 33.4533 139.12 34.584 139.035 35.224C138.95 35.864 138.907 36.2267 138.907 36.312C138.907 36.7387 139.035 37.0373 139.291 37.208C139.59 37.3787 139.739 37.6347 139.739 37.976C139.568 38.1467 139.611 38.4667 139.867 38.936C140.166 39.4053 140.678 39.704 141.403 39.832C142.128 39.96 142.939 39.9173 143.835 39.704C144.731 39.448 145.712 39.2773 146.779 39.192C147.163 39.192 147.398 39.2347 147.483 39.32C147.611 39.4053 147.718 39.512 147.803 39.64C147.931 39.7253 148.123 39.832 148.379 39.96C148.678 40.0453 149.211 40.1093 149.979 40.152C150.15 40.152 150.47 40.024 150.939 39.768C151.451 39.512 151.664 39.1067 151.579 38.552C151.92 38.552 152.347 38.488 152.859 38.36C153.414 38.232 153.968 38.1253 154.523 38.04C155.078 37.9547 155.568 37.9547 155.995 38.04C156.422 38.0827 156.699 38.296 156.827 38.68L157.083 39.64C157.04 39.7253 157.019 39.832 157.019 39.96C157.019 40.0453 156.998 40.152 156.955 40.28C156.912 40.4933 156.848 40.792 156.763 41.176C156.678 41.5173 156.592 41.9227 156.507 42.392C155.611 42.4773 155.12 42.4987 155.035 42.456C154.95 42.4133 154.864 42.392 154.779 42.392C154.651 42.392 154.438 42.4773 154.139 42.648C153.883 42.776 153.67 42.8827 153.499 42.968C153.243 43.0107 152.816 43.0747 152.219 43.16C151.664 43.2453 150.96 43.3307 150.107 43.416C149.638 43.5013 149.232 43.5653 148.891 43.608C148.592 43.608 148.336 43.6293 148.123 43.672C147.952 43.7147 147.739 43.736 147.483 43.736C147.44 43.736 147.291 43.7573 147.035 43.8C146.779 43.8 146.48 43.8 146.139 43.8H144.219C143.366 43.7147 142.747 43.6507 142.363 43.608C142.022 43.5653 141.744 43.5653 141.531 43.608C141.36 43.608 141.19 43.672 141.019 43.8C140.891 43.8853 140.592 44.056 140.123 44.312C139.952 44.3547 139.632 44.376 139.163 44.376H136.411C136.07 44.3333 135.792 44.312 135.579 44.312C135.408 44.2693 135.216 44.2267 135.003 44.184L132.507 44.952C131.91 44.8667 131.44 44.6107 131.099 44.184C130.758 43.7573 130.48 43.3093 130.267 42.84ZM182.555 23C182.683 23.7253 182.747 24.3653 182.747 24.92C182.747 25.432 182.726 25.944 182.683 26.456C182.683 26.9253 182.704 27.3947 182.747 27.864C182.832 28.2907 183.003 28.76 183.259 29.272C183.174 29.4427 182.96 29.784 182.619 30.296C182.32 30.7653 182.107 31.256 181.979 31.768C181.894 32.2373 181.83 32.6 181.787 32.856C181.744 33.112 181.702 33.2827 181.659 33.368C181.787 33.4533 181.894 33.624 181.979 33.88C182.022 34.0933 181.979 34.3707 181.851 34.712C181.723 35.0107 181.467 35.4373 181.083 35.992C180.315 37.016 179.888 37.8907 179.803 38.616C179.718 39.2987 179.547 39.832 179.291 40.216C179.206 40.3013 178.928 40.4293 178.459 40.6C178.032 40.7707 177.52 40.984 176.923 41.24C176.326 41.4533 175.728 41.7093 175.131 42.008C174.534 42.3067 174.064 42.6053 173.723 42.904C172.998 43.032 172.358 43.2027 171.803 43.416C171.248 43.6293 170.566 43.7787 169.755 43.864C168.987 44.0347 168.198 44.248 167.387 44.504C166.576 44.7173 166.128 44.824 166.043 44.824C164.038 44.824 162.843 44.888 162.459 45.016C162.118 45.144 161.712 45.208 161.243 45.208L155.419 43.096L152.731 39.192C152.731 38.168 152.688 37.3147 152.603 36.632C152.56 35.9067 152.496 35.288 152.411 34.776C152.326 34.2213 152.262 33.7093 152.219 33.24C152.176 32.7707 152.176 32.2373 152.219 31.64C152.347 31.512 152.539 31.2133 152.795 30.744C153.051 30.232 153.307 29.656 153.563 29.016C153.862 28.376 154.139 27.7147 154.395 27.032C154.694 26.3493 154.907 25.7733 155.035 25.304C155.376 24.3227 155.632 23.4693 155.803 22.744C155.974 21.976 156.102 21.2933 156.187 20.696C156.528 20.4827 156.806 20.248 157.019 19.992C157.232 19.736 157.446 19.5227 157.659 19.352C159.408 18.328 160.923 17.496 162.203 16.856C163.483 16.1733 164.678 15.7467 165.787 15.576L167.707 15.448C167.92 15.4907 168.112 15.5333 168.283 15.576C168.454 15.6187 168.624 15.6613 168.795 15.704C169.051 15.7893 169.286 15.8533 169.499 15.896C169.712 15.896 169.84 15.896 169.883 15.896L171.163 17.88C171.163 18.264 171.078 18.584 170.907 18.84C170.736 19.0533 170.907 19.2027 171.419 19.288C171.974 19.416 172.272 19.5013 172.315 19.544V19.608C172.998 19.608 173.702 19.4587 174.427 19.16C175.152 18.8187 175.878 18.648 176.603 18.648C176.774 18.648 177.072 18.7333 177.499 18.904C177.926 19.032 178.374 19.2027 178.843 19.416C179.312 19.6293 179.739 19.8427 180.123 20.056C180.55 20.2267 180.848 20.3547 181.019 20.44C180.934 21.08 180.955 21.528 181.083 21.784C181.211 22.04 181.382 22.232 181.595 22.36C181.808 22.4453 182 22.5307 182.171 22.616C182.384 22.6587 182.512 22.7867 182.555 23ZM171.099 39C171.739 38.5733 172.358 37.208 172.955 34.904C173.296 33.6667 173.574 32.7493 173.787 32.152C174.043 31.512 174.171 30.9147 174.171 30.36C174.171 29.4213 173.851 28.312 173.211 27.032C172.87 26.3493 172.614 25.7733 172.443 25.304C172.272 24.8347 172.144 24.3653 172.059 23.896C171.718 23.7253 171.526 23.4693 171.483 23.128C171.483 22.744 171.312 22.36 170.971 21.976C170.544 21.6347 170.288 21.5067 170.203 21.592C170.118 21.6773 170.032 21.72 169.947 21.72H169.371C169.03 21.72 168.56 21.784 167.963 21.912C167.408 22.04 166.96 22.3387 166.619 22.808C166.107 23.3627 165.659 23.8107 165.275 24.152C164.934 24.4507 164.742 24.6427 164.699 24.728C164.272 25.5387 163.888 26.2427 163.547 26.84C163.206 27.3947 162.928 27.8427 162.715 28.184L162.139 29.528C161.883 30.168 161.776 31.0213 161.819 32.088C161.904 32.2587 161.99 32.6427 162.075 33.24C162.16 33.7947 161.904 34.392 161.307 35.032C161.179 35.16 161.051 35.416 160.923 35.8C160.795 36.1413 160.71 36.5467 160.667 37.016C160.624 37.4853 160.667 37.9547 160.795 38.424C160.966 38.8933 161.286 39.2987 161.755 39.64C162.352 40.0667 162.971 40.4933 163.611 40.92C164.251 41.304 164.656 41.496 164.827 41.496H165.531C165.787 41.496 166.022 41.56 166.235 41.688L171.099 39ZM207.011 32.472C206.584 32.7707 205.987 32.92 205.219 32.92C204.622 32.92 204.11 32.92 203.683 32.92C203.299 32.92 202.979 32.8987 202.723 32.856L200.931 34.008C200.803 34.0507 200.568 34.1147 200.227 34.2C200.014 34.2853 199.736 34.3707 199.395 34.456C199.096 34.5413 198.734 34.6693 198.307 34.84C197.454 35.0533 196.664 35.3307 195.939 35.672C195.256 36.0133 194.616 36.376 194.019 36.76C193.72 37.1013 193.358 37.3147 192.931 37.4C192.504 37.4427 192.312 37.5493 192.355 37.72C192.142 38.3173 191.971 38.8507 191.843 39.32C191.715 39.7893 191.651 40.28 191.651 40.792C191.651 41.3893 191.651 41.9227 191.651 42.392C191.651 42.8613 191.608 43.224 191.523 43.48L198.819 40.728C199.288 40.8133 199.651 40.856 199.907 40.856C200.163 40.856 200.398 40.856 200.611 40.856C200.824 40.8987 201.059 40.856 201.315 40.728C201.571 40.5573 201.934 40.3653 202.403 40.152L203.875 40.216L207.907 41.432L208.547 42.328C208.632 42.712 208.803 43.2667 209.059 43.992C209.358 44.6747 209.571 45.3573 209.699 46.04C209.784 46.3813 209.87 46.7653 209.955 47.192C210.083 47.6613 210.232 48.1947 210.403 48.792C210.702 49.9867 210.958 50.648 211.171 50.776L210.595 52.44L211.171 54.04L210.851 55.256L207.395 57.88C207.224 57.8373 207.075 57.7947 206.947 57.752C206.819 57.7093 206.691 57.6667 206.563 57.624C206.35 57.5387 206.136 57.4747 205.923 57.432C205.71 57.3893 205.539 57.368 205.411 57.368L200.419 59.672C200.248 59.6293 200.056 59.5867 199.843 59.544C199.672 59.544 199.48 59.5013 199.267 59.416C198.883 59.3307 198.371 59.224 197.731 59.096C197.134 59.0107 196.43 58.8827 195.619 58.712C194.808 58.5413 193.87 58.3707 192.803 58.2C191.779 58.0293 190.776 57.88 189.795 57.752C188.856 57.624 187.982 57.5387 187.171 57.496C186.403 57.4533 185.87 57.4533 185.571 57.496L182.691 56.92L182.115 56.408L181.091 52.248L181.411 50.968C182.435 50.456 183.31 49.7307 184.035 48.792C184.76 47.896 185.166 46.7653 185.251 45.4C185.294 44.6747 185.315 44.0773 185.315 43.608C185.315 43.1387 185.315 42.7547 185.315 42.456C185.315 42.1573 185.294 41.9227 185.251 41.752C185.251 41.5813 185.251 41.3893 185.251 41.176L185.763 38.296L186.723 37.464L187.043 34.2C186.915 34.0293 186.723 33.7733 186.467 33.432C186.254 33.048 185.998 32.6427 185.699 32.216C185.4 31.7893 185.102 31.384 184.803 31C184.547 30.5733 184.312 30.2107 184.099 29.912L184.291 26.584L187.235 20.504L188.899 18.072L195.171 15.192L202.019 17.944L203.619 17.176C203.747 17.176 203.875 17.1547 204.003 17.112C204.131 17.0693 204.302 17.048 204.515 17.048C204.728 17.0053 205.006 16.9413 205.347 16.856C205.987 16.7707 206.542 16.536 207.011 16.152C207.48 15.768 207.928 15.256 208.355 14.616C208.696 15.0427 209.016 15.4267 209.315 15.768C209.614 16.1093 209.891 16.4293 210.147 16.728C210.318 16.8987 210.467 17.0693 210.595 17.24C210.723 17.368 210.851 17.496 210.979 17.624V20.952L210.339 21.592L205.859 22.552L206.435 24.6L206.627 27.544L207.715 30.36L207.011 32.472ZM191.971 32.024L198.371 30.488C198.67 30.1893 198.883 29.7413 199.011 29.144C199.182 28.504 198.968 27.8853 198.371 27.288L196.707 24.344L194.787 20.504H192.483L192.355 22.808C191.246 22.5947 190.52 23.1067 190.179 24.344C189.966 24.984 189.795 25.5173 189.667 25.944C189.539 26.328 189.454 26.6693 189.411 26.968L191.971 32.024ZM190.627 53.912L197.091 54.808C199.48 55.0213 201.038 55.0213 201.763 54.808C201.806 54.5947 201.827 54.36 201.827 54.104C201.87 53.8907 201.87 53.6773 201.827 53.464C201.827 53.0373 201.635 52.5253 201.251 51.928C200.867 51.3733 200.675 50.8187 200.675 50.264C200.675 50.0507 200.739 49.9227 200.867 49.88C200.995 49.88 201.016 49.7733 200.931 49.56C200.888 49.3893 200.846 49.0907 200.803 48.664C200.803 48.2373 200.782 47.7893 200.739 47.32C200.696 46.8507 200.632 46.4027 200.547 45.976C200.504 45.5493 200.419 45.272 200.291 45.144C200.035 45.2293 199.608 45.3787 199.011 45.592C198.456 45.8053 197.838 46.0187 197.155 46.232C196.515 46.4453 195.896 46.6587 195.299 46.872C194.702 47.0427 194.275 47.1493 194.019 47.192C193.635 47.96 193.123 48.4293 192.483 48.6C191.886 48.8133 191.224 49.0907 190.499 49.432C190.627 49.7733 190.52 50.1147 190.179 50.456C189.88 50.6693 189.091 51.0533 187.811 51.608C186.488 52.2053 185.742 52.7813 185.571 53.336L190.627 53.912Z" fill="#FCFCFC"/>
</svg>
