<svg width="207" height="60" viewBox="0 0 207 60" fill="none" xmlns="http://www.w3.org/2000/svg">
<path d="M0.736 43.096V41.56C0.736 41.0907 0.693333 40.6427 0.608 40.216C0.821334 39.832 0.842667 38.68 0.672 36.76C0.586667 35.736 0.501334 34.904 0.416 34.264C0.373334 33.624 0.352 33.176 0.352 32.92V32.408C0.352 32.2373 0.352 32.0667 0.352 31.896C0.394667 31.6827 0.437334 31.4693 0.48 31.256C0.522667 30.2747 0.586667 29.6133 0.672 29.272C0.714667 29.144 0.821333 28.9733 0.992 28.76C1.16267 28.504 1.248 28.248 1.248 27.992C1.248 26.072 1.33333 24.024 1.504 21.848C1.71733 19.6293 1.84533 17.56 1.888 15.64C1.93067 14.1467 1.952 12.952 1.952 12.056C1.952 11.16 1.97333 10.6053 2.016 10.392C2.05867 9.83733 2.05867 9.24 2.016 8.6C2.016 7.91733 2.016 7.27733 2.016 6.68C2.016 6.552 1.99467 6.46667 1.952 6.424L3.616 5.08H9.184C9.78133 4.99467 10.208 4.97333 10.464 5.016C10.72 5.05866 10.8907 5.12266 10.976 5.208L12.384 6.232C12.768 6.70133 13.088 6.97866 13.344 7.064C13.6427 7.10667 13.8773 7.04266 14.048 6.872C14.2613 6.65866 14.4533 6.40266 14.624 6.104C14.7947 5.76266 14.9653 5.44267 15.136 5.144L18.528 5.336L23.584 7.448C23.7547 7.61867 23.904 7.78933 24.032 7.96C24.16 8.088 24.288 8.19466 24.416 8.28C24.6293 8.49333 24.8213 8.68533 24.992 8.856C25.2053 9.02667 25.3547 9.112 25.44 9.112C25.5253 9.112 25.9307 9.21867 26.656 9.432C27.424 9.64533 28.1067 10.2427 28.704 11.224C29.1733 11.224 29.6427 11.3733 30.112 11.672C30.624 11.9707 31.0507 12.312 31.392 12.696C31.7333 13.0373 31.9893 13.3787 32.16 13.72C32.3733 14.0187 32.4373 14.1893 32.352 14.232C31.6267 14.9147 31.392 15.512 31.648 16.024C31.9467 16.536 32.3733 16.8987 32.928 17.112C33.0987 17.8373 33.44 18.3493 33.952 18.648C34.464 18.904 34.848 19.096 35.104 19.224C35.104 19.352 35.1467 20.0133 35.232 21.208C35.3173 22.36 35.4453 24.0453 35.616 26.264C35.7013 27.3733 35.7867 28.3547 35.872 29.208C35.9573 30.0187 36.0427 30.7013 36.128 31.256C36.2133 31.5973 36.2773 31.9173 36.32 32.216C36.3627 32.472 36.4053 32.7067 36.448 32.92C36.4907 33.1333 35.7653 34.3493 34.272 36.568C32.736 38.7013 31.968 40.1307 31.968 40.856H28.576C28.4053 40.856 28.192 40.9413 27.936 41.112C27.68 41.24 27.424 41.3893 27.168 41.56L26.144 42.2C26.016 42.2427 25.888 42.264 25.76 42.264C25.632 42.264 25.4827 42.2853 25.312 42.328C25.056 42.3707 24.7147 42.4133 24.288 42.456C23.904 42.4987 23.456 42.5627 22.944 42.648C21.8773 42.8613 20.9813 42.9893 20.256 43.032C19.5307 43.0747 18.9333 43.0533 18.464 42.968C18.4213 42.4133 16.9707 42.584 14.112 43.48C13.3867 43.6933 12.64 43.8853 11.872 44.056C11.104 44.184 10.4 44.2907 9.76 44.376C9.376 44.4613 8.992 44.5253 8.608 44.568C8.26667 44.6107 7.92533 44.6533 7.584 44.696L6.176 44.376C5.92 44.4187 5.664 44.4827 5.408 44.568C5.152 44.6107 4.98133 44.632 4.896 44.632C4.768 44.632 4.576 44.5893 4.32 44.504C4.10667 44.4187 3.91467 44.376 3.744 44.376C3.65867 44.376 3.46667 44.3973 3.168 44.44C2.912 44.44 2.74133 44.4827 2.656 44.568L0.736 43.096ZM13.152 40.664C13.5787 40.4933 14.0267 40.2587 14.496 39.96C15.008 39.6187 15.4347 39.512 15.776 39.64H17.568C17.6533 39.64 17.8453 39.5333 18.144 39.32C18.4427 39.064 18.656 38.936 18.784 38.936C18.9547 38.936 19.04 39.0213 19.04 39.192C19.04 39.32 19.2747 39.384 19.744 39.384C19.9147 39.384 20.32 39.2987 20.96 39.128C21.6 38.9147 22.2827 38.6373 23.008 38.296C23.776 37.9547 24.3733 37.6987 24.8 37.528C25.2693 37.3573 25.5467 37.2507 25.632 37.208C25.6747 37.1227 25.696 37.016 25.696 36.888C25.7387 36.76 25.8027 36.6107 25.888 36.44C25.9733 36.184 26.0587 35.8853 26.144 35.544C26.272 35.2027 26.4427 34.7973 26.656 34.328C26.9547 33.304 27.1893 32.5147 27.36 31.96C27.5307 31.4053 27.616 31.0213 27.616 30.808L25.568 23.256C25.568 22.9573 25.5893 22.7227 25.632 22.552C25.632 22.3387 25.632 22.0827 25.632 21.784C25.6747 21.4427 25.7173 21.0373 25.76 20.568C25.9307 18.7333 26.0373 17.816 26.08 17.816C26.0373 17.7733 25.888 17.5387 25.632 17.112C25.4187 16.6853 25.0987 16.1093 24.672 15.384C24.2453 14.616 23.8827 13.8267 23.584 13.016C23.328 12.1627 23.1147 11.736 22.944 11.736L17.888 8.472H13.088C13.088 8.984 12.9813 9.28267 12.768 9.368C12.5547 9.41067 12.448 9.47467 12.448 9.56V10.712C12.448 11.0533 12.448 11.4587 12.448 11.928C12.448 12.3973 12.4267 12.9307 12.384 13.528V17.752C11.6587 18.136 11.2533 18.584 11.168 19.096C11.168 19.48 10.976 20.0773 10.592 20.888C10.5067 20.9733 10.464 21.1227 10.464 21.336C10.464 21.9333 10.464 22.36 10.464 22.616C10.5067 22.8293 10.464 23.2133 10.336 23.768C10.2507 23.8533 10.336 24.6 10.592 26.008C10.848 27.5013 10.9973 28.2693 11.04 28.312C10.9973 28.5253 10.9333 28.824 10.848 29.208C10.8053 29.592 10.72 30.04 10.592 30.552C10.464 31.064 10.3787 31.448 10.336 31.704C10.2933 31.96 10.272 32.1307 10.272 32.216C10.272 32.728 10.336 33.6453 10.464 34.968C10.5067 35.6507 10.528 36.248 10.528 36.76C10.5707 37.2293 10.592 37.5707 10.592 37.784C10.6773 38.1253 10.7413 38.4667 10.784 38.808C10.8693 39.1493 10.9547 39.512 11.04 39.896L13.152 40.664ZM38.25 5.656C38.3353 5.31466 38.378 4.99466 38.378 4.696C38.4207 4.35467 38.4633 4.01333 38.506 3.672C38.506 3.37333 38.506 3.11733 38.506 2.904C38.5487 2.69067 38.57 2.49867 38.57 2.328L38.89 1.624C39.018 1.58133 39.1887 1.56 39.402 1.56C39.6153 1.56 39.8713 1.53866 40.17 1.496C41.066 1.45333 41.642 1.34667 41.898 1.176C41.898 1.13333 42.0047 1.048 42.218 0.919998C42.346 0.791997 42.4527 0.706664 42.538 0.663998C42.5807 0.663998 42.73 0.685331 42.986 0.727997C43.242 0.770663 43.5833 0.855996 44.01 0.983997C44.7353 1.15466 45.2473 1.24 45.546 1.24C45.93 1.24 46.1433 1.21866 46.186 1.176C46.2287 1.13333 46.3567 1.13333 46.57 1.176L47.146 2.264L47.722 5.528L46.378 7.768C46.3353 7.81066 46.2927 7.85333 46.25 7.896C46.25 7.93867 46.2073 7.98133 46.122 8.024C45.9087 8.152 45.6527 8.344 45.354 8.6L45.162 8.792L43.242 8.984C42.986 8.89867 42.6873 8.81333 42.346 8.728C42.0047 8.6 41.5993 8.45067 41.13 8.28C40.6607 8.10933 40.2553 7.96 39.914 7.832C39.5727 7.66133 39.274 7.53333 39.018 7.448L38.698 7.128L38.25 5.656ZM46.186 16.664L45.93 18.968L46.186 19.928L45.802 20.952L45.994 22.424L45.674 23.64L45.866 24.024L45.61 26.904L45.354 32.984C45.354 33.2827 45.3113 33.6667 45.226 34.136C45.1407 34.5627 45.0767 35.032 45.034 35.544C44.9913 36.0133 44.9913 36.504 45.034 37.016C45.0767 37.4853 45.2047 37.8907 45.418 38.232C45.3753 38.872 45.3113 39.6187 45.226 40.472C45.1407 41.3253 44.9913 42.3067 44.778 43.416C44.4367 43.8853 44.074 44.312 43.69 44.696C43.3487 45.0373 42.6873 45.2293 41.706 45.272C41.1513 45.3147 40.5967 45.3573 40.042 45.4C39.53 45.4427 39.0393 45.5067 38.57 45.592C38.314 45.6347 38.058 45.6773 37.802 45.72C37.546 45.7627 37.2687 45.8267 36.97 45.912L35.37 43.864C35.4127 43.6507 35.4767 43.0747 35.562 42.136C35.69 41.1547 35.7967 40.0027 35.882 38.68C35.9673 37.3573 36.01 35.9493 36.01 34.456C36.0527 32.9627 36.01 31.576 35.882 30.296L36.266 29.08L36.842 26.264L37.034 24.024L37.418 23.256L37.482 22.68L37.866 20.952L38.186 17.432L43.946 15.192L46.186 16.664ZM77.902 42.072L68.942 43.16L67.086 40.152C67.086 39.5973 66.6593 39.6187 65.806 40.216C65.5927 40.344 65.3793 40.5573 65.166 40.856C64.9527 41.1547 64.7393 41.4533 64.526 41.752C64.398 41.9227 64.27 42.0933 64.142 42.264C64.014 42.4347 63.886 42.6267 63.758 42.84C62.4353 43.8213 61.07 44.4613 59.662 44.76C58.2967 45.0587 57.1233 44.8667 56.142 44.184C55.4167 44.0987 54.926 43.928 54.67 43.672C54.542 43.5867 54.3713 43.4373 54.158 43.224L50.062 42.968L48.334 42.136L46.734 38.104L47.054 36.76L45.646 31.128L48.334 26.648L50.51 24.664C51.3207 24.2373 52.2593 23.896 53.326 23.64C54.3927 23.384 55.4593 23.2133 56.526 23.128C57.5927 23 58.6167 22.9787 59.598 23.064C60.5793 23.1067 61.39 23.2347 62.03 23.448C62.03 24.1307 62.2433 24.5787 62.67 24.792C63.0967 25.0053 63.9287 25.24 65.166 25.496C65.5927 24.7707 65.806 23.896 65.806 22.872C65.806 21.8053 65.614 20.696 65.23 19.544L64.206 16.28C63.8647 16.152 63.3313 15.9387 62.606 15.64C61.9233 15.2987 61.3473 15.0213 60.878 14.808L58.126 15.256L55.31 15.832L54.67 14.808L55.374 13.144L55.822 12.12L56.718 11.928L59.662 11.416L62.286 12.312L65.166 11.864L70.734 13.528L73.102 17.112L73.934 27.288L73.742 30.488L75.15 37.976L75.982 38.36H77.966L78.798 40.6L77.902 42.072ZM54.414 31.64C54.2007 32.7493 54.2007 33.688 54.414 34.456C54.67 35.224 55.0753 35.864 55.63 36.376L56.59 38.36C57.358 38.616 58.0833 38.808 58.766 38.936C59.4487 39.064 60.1527 39.0853 60.878 39C61.646 38.872 62.4353 38.6373 63.246 38.296C64.0993 37.912 65.0807 37.3573 66.19 36.632L66.318 33.368L65.166 27.672C64.5687 27.4587 64.0353 27.352 63.566 27.352C63.1393 27.352 62.7127 27.3947 62.286 27.48C61.774 27.608 61.1767 27.7147 60.494 27.8C59.8113 27.8853 59.1073 27.992 58.382 28.12C57.6993 28.2053 57.0593 28.3333 56.462 28.504C55.9073 28.632 55.502 28.824 55.246 29.08L54.414 31.64ZM97.7145 16.92V19.864H96.0505L93.6185 21.784C91.5278 22.0827 89.8212 22.5093 88.4985 23.064C87.1758 23.576 86.5572 24.3013 86.6425 25.24C86.5572 25.4533 86.5145 25.7093 86.5145 26.008C86.5145 26.264 86.6638 26.392 86.9625 26.392L85.6825 32.792L85.1065 33.496V40.6L84.7225 44.184L83.4425 45.464L76.1465 44.952L74.5465 42.776L74.9945 41.624L74.7385 38.104L75.5065 31.64L76.1465 26.904C76.1465 26.776 76.1678 26.6693 76.2105 26.584C76.2105 26.4987 76.2105 26.392 76.2105 26.264C76.2532 26.136 76.2745 26.0293 76.2745 25.944C76.4878 25.7733 76.6158 25.3893 76.6585 24.792C76.7438 24.1947 76.7652 23.8107 76.7225 23.64C76.7225 23.3413 76.7012 23.064 76.6585 22.808C76.6585 22.552 76.5732 21.9973 76.4025 21.144C76.3598 20.888 76.2105 20.5893 75.9545 20.248C75.7412 19.864 75.5065 19.5227 75.2505 19.224L76.0825 17.24H77.2985L83.8905 16.024L85.4905 16.792C85.3625 17.5173 85.3412 18.136 85.4265 18.648C85.5545 19.1173 85.7252 19.48 85.9385 19.736C86.1945 19.992 86.4718 20.1627 86.7705 20.248C87.0692 20.2907 87.3252 20.248 87.5385 20.12L88.6905 19.48C88.9038 19.3947 88.9678 19.16 88.8825 18.776C88.8398 18.392 88.8612 17.9013 88.9465 17.304L96.8825 15.896L97.7145 16.92ZM125.985 16.856L130.913 17.816L129.889 20.312V20.504C129.932 20.888 129.697 22.168 129.185 24.344C129.142 24.472 128.95 24.664 128.609 24.92C128.31 25.176 127.948 25.4747 127.521 25.816C127.137 26.1573 126.753 26.52 126.369 26.904C125.985 27.2453 125.729 27.5867 125.601 27.928L116.321 42.136L114.401 44.056C114.273 44.0987 114.145 44.1627 114.017 44.248C113.932 44.2907 113.846 44.312 113.761 44.312L114.337 45.144L111.329 49.688L107.425 54.808L106.465 56.152L98.913 55.768L97.761 52.504L99.937 51.928L101.473 50.328L102.625 49.496V47.896C102.796 47.8107 102.945 47.704 103.073 47.576C103.244 47.4907 103.414 47.384 103.585 47.256C103.841 47.0427 104.118 46.7867 104.417 46.488C104.716 46.1893 104.993 45.8267 105.249 45.4C106.188 43.736 106.209 42.904 105.313 42.904C105.654 42.648 105.889 42.456 106.017 42.328C106.444 41.9013 106.721 41.3467 106.849 40.664C107.02 39.3413 106.934 38.488 106.593 38.104C106.38 38.0613 105.91 37.6133 105.185 36.76C104.801 36.3333 104.481 35.9707 104.225 35.672C103.969 35.3733 103.756 35.1813 103.585 35.096C103.329 34.3707 102.945 33.56 102.433 32.664C101.964 31.768 101.43 30.872 100.833 29.976C100.278 29.0373 99.7023 28.12 99.105 27.224C98.5077 26.328 97.953 25.496 97.441 24.728C95.905 22.424 94.561 20.8667 93.409 20.056L92.961 18.328C93.473 17.7733 94.113 17.4533 94.881 17.368C95.7343 17.2827 96.3317 16.984 96.673 16.472L100.321 15.32C101.089 15.7467 101.793 16.2373 102.433 16.792C103.329 17.6027 104.246 18.1573 105.185 18.456C105.185 19.0107 105.356 19.5013 105.697 19.928C106.038 20.3547 106.422 20.76 106.849 21.144C107.276 21.4853 107.681 21.8053 108.065 22.104C108.492 22.4027 108.79 22.7013 108.961 23C108.961 23.0427 108.982 23.192 109.025 23.448C109.11 23.6613 109.153 23.896 109.153 24.152C109.196 24.408 109.196 24.6427 109.153 24.856C109.153 25.0267 109.089 25.112 108.961 25.112C108.748 25.112 108.769 25.2187 109.025 25.432C109.281 25.6453 109.772 25.9227 110.497 26.264C110.497 26.392 110.582 26.6267 110.753 26.968C110.966 27.3093 111.222 27.6933 111.521 28.12C111.82 28.5467 112.118 28.9947 112.417 29.464C112.716 29.8907 112.972 30.296 113.185 30.68C113.654 31.576 113.974 32.4293 114.145 33.24C114.316 34.008 114.465 34.4347 114.593 34.52C114.678 34.52 114.849 34.4773 115.105 34.392C115.361 34.264 115.638 34.136 115.937 34.008C116.236 33.8373 116.492 33.6453 116.705 33.432C116.918 33.176 117.025 32.92 117.025 32.664C117.025 32.408 116.94 32.1947 116.769 32.024L116.321 31.448C116.193 31.2347 116.086 31.0427 116.001 30.872C115.916 30.7013 115.916 30.5307 116.001 30.36C116.47 29.976 116.812 29.656 117.025 29.4C117.238 29.1013 117.516 28.7173 117.857 28.248C117.942 28.0347 118.113 27.8 118.369 27.544C118.668 27.2453 118.966 26.968 119.265 26.712C119.606 26.456 119.905 26.2427 120.161 26.072C120.417 25.8587 120.545 25.7307 120.545 25.688C120.886 25.0053 121.164 24.344 121.377 23.704C121.59 23.0213 121.868 22.0613 122.209 20.824C122.252 20.6107 122.358 20.3973 122.529 20.184C122.742 19.9707 122.956 19.7787 123.169 19.608C123.425 19.3947 123.638 19.224 123.809 19.096C124.022 18.9253 124.15 18.776 124.193 18.648C124.236 18.5627 124.257 18.52 124.257 18.52C124.257 18.4773 124.278 18.4133 124.321 18.328L125.985 16.856ZM127.067 42.84C127.11 42.6267 127.131 42.4347 127.131 42.264C127.174 42.0507 127.216 41.8373 127.259 41.624C127.515 39.832 127.643 38.616 127.643 37.976C127.643 37.848 127.6 37.6347 127.515 37.336C127.472 37.0373 127.43 36.824 127.387 36.696L127.963 22.424C127.75 22.1253 127.707 21.7413 127.835 21.272C127.963 20.76 128.155 20.44 128.411 20.312C128.582 19.7147 128.816 19.032 129.115 18.264C129.456 17.496 129.584 16.6213 129.499 15.64C129.456 15.1707 129.499 14.7867 129.627 14.488C129.755 14.1467 129.862 13.9333 129.947 13.848L130.459 13.336C130.8 12.9947 130.992 12.696 131.035 12.44C131.078 12.1413 131.035 11.864 130.907 11.608C130.779 11.352 130.608 11.16 130.395 11.032C130.224 10.8613 130.054 10.7333 129.883 10.648C129.755 10.52 129.691 10.4347 129.691 10.392C129.776 10.136 129.819 9.92267 129.819 9.752C129.819 9.58133 129.691 9.38933 129.435 9.176L129.563 7.64C129.776 7.34133 130.16 7.192 130.715 7.192C131.312 7.14933 131.782 7.128 132.123 7.128C132.251 7.128 132.464 7.128 132.763 7.128C133.062 7.08533 133.403 7.064 133.787 7.064L134.939 7C135.152 6.95733 135.323 6.936 135.451 6.936C135.622 6.936 135.771 6.936 135.899 6.936L136.603 6.616C136.902 6.44533 137.136 6.36 137.307 6.36C137.435 6.36 137.67 6.424 138.011 6.552C138.395 6.63733 138.8 6.808 139.227 7.064L138.907 13.272L138.267 18.712C138.267 18.8827 138.16 19.2453 137.947 19.8C137.734 20.312 137.52 20.7387 137.307 21.08C137.222 21.1653 137.179 21.336 137.179 21.592C137.179 21.8053 137.179 22.0613 137.179 22.36C137.222 22.616 137.243 22.872 137.243 23.128C137.286 23.384 137.286 23.576 137.243 23.704L136.795 28.376C136.795 28.4613 136.752 28.5467 136.667 28.632C136.624 28.6747 136.56 28.824 136.475 29.08C136.432 29.2933 136.368 29.6133 136.283 30.04C136.198 30.4667 136.134 31.064 136.091 31.832C136.006 33.4533 135.92 34.584 135.835 35.224C135.75 35.864 135.707 36.2267 135.707 36.312C135.707 36.7387 135.835 37.0373 136.091 37.208C136.39 37.3787 136.539 37.6347 136.539 37.976C136.368 38.1467 136.411 38.4667 136.667 38.936C136.966 39.4053 137.478 39.704 138.203 39.832C138.928 39.96 139.739 39.9173 140.635 39.704C141.531 39.448 142.512 39.2773 143.579 39.192C143.963 39.192 144.198 39.2347 144.283 39.32C144.411 39.4053 144.518 39.512 144.603 39.64C144.731 39.7253 144.923 39.832 145.179 39.96C145.478 40.0453 146.011 40.1093 146.779 40.152C146.95 40.152 147.27 40.024 147.739 39.768C148.251 39.512 148.464 39.1067 148.379 38.552C148.72 38.552 149.147 38.488 149.659 38.36C150.214 38.232 150.768 38.1253 151.323 38.04C151.878 37.9547 152.368 37.9547 152.795 38.04C153.222 38.0827 153.499 38.296 153.627 38.68L153.883 39.64C153.84 39.7253 153.819 39.832 153.819 39.96C153.819 40.0453 153.798 40.152 153.755 40.28C153.712 40.4933 153.648 40.792 153.563 41.176C153.478 41.5173 153.392 41.9227 153.307 42.392C152.411 42.4773 151.92 42.4987 151.835 42.456C151.75 42.4133 151.664 42.392 151.579 42.392C151.451 42.392 151.238 42.4773 150.939 42.648C150.683 42.776 150.47 42.8827 150.299 42.968C150.043 43.0107 149.616 43.0747 149.019 43.16C148.464 43.2453 147.76 43.3307 146.907 43.416C146.438 43.5013 146.032 43.5653 145.691 43.608C145.392 43.608 145.136 43.6293 144.923 43.672C144.752 43.7147 144.539 43.736 144.283 43.736C144.24 43.736 144.091 43.7573 143.835 43.8C143.579 43.8 143.28 43.8 142.939 43.8H141.019C140.166 43.7147 139.547 43.6507 139.163 43.608C138.822 43.5653 138.544 43.5653 138.331 43.608C138.16 43.608 137.99 43.672 137.819 43.8C137.691 43.8853 137.392 44.056 136.923 44.312C136.752 44.3547 136.432 44.376 135.963 44.376H133.211C132.87 44.3333 132.592 44.312 132.379 44.312C132.208 44.2693 132.016 44.2267 131.803 44.184L129.307 44.952C128.71 44.8667 128.24 44.6107 127.899 44.184C127.558 43.7573 127.28 43.3093 127.067 42.84ZM178.715 23C178.843 23.7253 178.907 24.3653 178.907 24.92C178.907 25.432 178.886 25.944 178.843 26.456C178.843 26.9253 178.864 27.3947 178.907 27.864C178.992 28.2907 179.163 28.76 179.419 29.272C179.334 29.4427 179.12 29.784 178.779 30.296C178.48 30.7653 178.267 31.256 178.139 31.768C178.054 32.2373 177.99 32.6 177.947 32.856C177.904 33.112 177.862 33.2827 177.819 33.368C177.947 33.4533 178.054 33.624 178.139 33.88C178.182 34.0933 178.139 34.3707 178.011 34.712C177.883 35.0107 177.627 35.4373 177.243 35.992C176.475 37.016 176.048 37.8907 175.963 38.616C175.878 39.2987 175.707 39.832 175.451 40.216C175.366 40.3013 175.088 40.4293 174.619 40.6C174.192 40.7707 173.68 40.984 173.083 41.24C172.486 41.4533 171.888 41.7093 171.291 42.008C170.694 42.3067 170.224 42.6053 169.883 42.904C169.158 43.032 168.518 43.2027 167.963 43.416C167.408 43.6293 166.726 43.7787 165.915 43.864C165.147 44.0347 164.358 44.248 163.547 44.504C162.736 44.7173 162.288 44.824 162.203 44.824C160.198 44.824 159.003 44.888 158.619 45.016C158.278 45.144 157.872 45.208 157.403 45.208L151.579 43.096L148.891 39.192C148.891 38.168 148.848 37.3147 148.763 36.632C148.72 35.9067 148.656 35.288 148.571 34.776C148.486 34.2213 148.422 33.7093 148.379 33.24C148.336 32.7707 148.336 32.2373 148.379 31.64C148.507 31.512 148.699 31.2133 148.955 30.744C149.211 30.232 149.467 29.656 149.723 29.016C150.022 28.376 150.299 27.7147 150.555 27.032C150.854 26.3493 151.067 25.7733 151.195 25.304C151.536 24.3227 151.792 23.4693 151.963 22.744C152.134 21.976 152.262 21.2933 152.347 20.696C152.688 20.4827 152.966 20.248 153.179 19.992C153.392 19.736 153.606 19.5227 153.819 19.352C155.568 18.328 157.083 17.496 158.363 16.856C159.643 16.1733 160.838 15.7467 161.947 15.576L163.867 15.448C164.08 15.4907 164.272 15.5333 164.443 15.576C164.614 15.6187 164.784 15.6613 164.955 15.704C165.211 15.7893 165.446 15.8533 165.659 15.896C165.872 15.896 166 15.896 166.043 15.896L167.323 17.88C167.323 18.264 167.238 18.584 167.067 18.84C166.896 19.0533 167.067 19.2027 167.579 19.288C168.134 19.416 168.432 19.5013 168.475 19.544V19.608C169.158 19.608 169.862 19.4587 170.587 19.16C171.312 18.8187 172.038 18.648 172.763 18.648C172.934 18.648 173.232 18.7333 173.659 18.904C174.086 19.032 174.534 19.2027 175.003 19.416C175.472 19.6293 175.899 19.8427 176.283 20.056C176.71 20.2267 177.008 20.3547 177.179 20.44C177.094 21.08 177.115 21.528 177.243 21.784C177.371 22.04 177.542 22.232 177.755 22.36C177.968 22.4453 178.16 22.5307 178.331 22.616C178.544 22.6587 178.672 22.7867 178.715 23ZM167.259 39C167.899 38.5733 168.518 37.208 169.115 34.904C169.456 33.6667 169.734 32.7493 169.947 32.152C170.203 31.512 170.331 30.9147 170.331 30.36C170.331 29.4213 170.011 28.312 169.371 27.032C169.03 26.3493 168.774 25.7733 168.603 25.304C168.432 24.8347 168.304 24.3653 168.219 23.896C167.878 23.7253 167.686 23.4693 167.643 23.128C167.643 22.744 167.472 22.36 167.131 21.976C166.704 21.6347 166.448 21.5067 166.363 21.592C166.278 21.6773 166.192 21.72 166.107 21.72H165.531C165.19 21.72 164.72 21.784 164.123 21.912C163.568 22.04 163.12 22.3387 162.779 22.808C162.267 23.3627 161.819 23.8107 161.435 24.152C161.094 24.4507 160.902 24.6427 160.859 24.728C160.432 25.5387 160.048 26.2427 159.707 26.84C159.366 27.3947 159.088 27.8427 158.875 28.184L158.299 29.528C158.043 30.168 157.936 31.0213 157.979 32.088C158.064 32.2587 158.15 32.6427 158.235 33.24C158.32 33.7947 158.064 34.392 157.467 35.032C157.339 35.16 157.211 35.416 157.083 35.8C156.955 36.1413 156.87 36.5467 156.827 37.016C156.784 37.4853 156.827 37.9547 156.955 38.424C157.126 38.8933 157.446 39.2987 157.915 39.64C158.512 40.0667 159.131 40.4933 159.771 40.92C160.411 41.304 160.816 41.496 160.987 41.496H161.691C161.947 41.496 162.182 41.56 162.395 41.688L167.259 39ZM202.531 32.472C202.104 32.7707 201.507 32.92 200.739 32.92C200.142 32.92 199.63 32.92 199.203 32.92C198.819 32.92 198.499 32.8987 198.243 32.856L196.451 34.008C196.323 34.0507 196.088 34.1147 195.747 34.2C195.534 34.2853 195.256 34.3707 194.915 34.456C194.616 34.5413 194.254 34.6693 193.827 34.84C192.974 35.0533 192.184 35.3307 191.459 35.672C190.776 36.0133 190.136 36.376 189.539 36.76C189.24 37.1013 188.878 37.3147 188.451 37.4C188.024 37.4427 187.832 37.5493 187.875 37.72C187.662 38.3173 187.491 38.8507 187.363 39.32C187.235 39.7893 187.171 40.28 187.171 40.792C187.171 41.3893 187.171 41.9227 187.171 42.392C187.171 42.8613 187.128 43.224 187.043 43.48L194.339 40.728C194.808 40.8133 195.171 40.856 195.427 40.856C195.683 40.856 195.918 40.856 196.131 40.856C196.344 40.8987 196.579 40.856 196.835 40.728C197.091 40.5573 197.454 40.3653 197.923 40.152L199.395 40.216L203.427 41.432L204.067 42.328C204.152 42.712 204.323 43.2667 204.579 43.992C204.878 44.6747 205.091 45.3573 205.219 46.04C205.304 46.3813 205.39 46.7653 205.475 47.192C205.603 47.6613 205.752 48.1947 205.923 48.792C206.222 49.9867 206.478 50.648 206.691 50.776L206.115 52.44L206.691 54.04L206.371 55.256L202.915 57.88C202.744 57.8373 202.595 57.7947 202.467 57.752C202.339 57.7093 202.211 57.6667 202.083 57.624C201.87 57.5387 201.656 57.4747 201.443 57.432C201.23 57.3893 201.059 57.368 200.931 57.368L195.939 59.672C195.768 59.6293 195.576 59.5867 195.363 59.544C195.192 59.544 195 59.5013 194.787 59.416C194.403 59.3307 193.891 59.224 193.251 59.096C192.654 59.0107 191.95 58.8827 191.139 58.712C190.328 58.5413 189.39 58.3707 188.323 58.2C187.299 58.0293 186.296 57.88 185.315 57.752C184.376 57.624 183.502 57.5387 182.691 57.496C181.923 57.4533 181.39 57.4533 181.091 57.496L178.211 56.92L177.635 56.408L176.611 52.248L176.931 50.968C177.955 50.456 178.83 49.7307 179.555 48.792C180.28 47.896 180.686 46.7653 180.771 45.4C180.814 44.6747 180.835 44.0773 180.835 43.608C180.835 43.1387 180.835 42.7547 180.835 42.456C180.835 42.1573 180.814 41.9227 180.771 41.752C180.771 41.5813 180.771 41.3893 180.771 41.176L181.283 38.296L182.243 37.464L182.563 34.2C182.435 34.0293 182.243 33.7733 181.987 33.432C181.774 33.048 181.518 32.6427 181.219 32.216C180.92 31.7893 180.622 31.384 180.323 31C180.067 30.5733 179.832 30.2107 179.619 29.912L179.811 26.584L182.755 20.504L184.419 18.072L190.691 15.192L197.539 17.944L199.139 17.176C199.267 17.176 199.395 17.1547 199.523 17.112C199.651 17.0693 199.822 17.048 200.035 17.048C200.248 17.0053 200.526 16.9413 200.867 16.856C201.507 16.7707 202.062 16.536 202.531 16.152C203 15.768 203.448 15.256 203.875 14.616C204.216 15.0427 204.536 15.4267 204.835 15.768C205.134 16.1093 205.411 16.4293 205.667 16.728C205.838 16.8987 205.987 17.0693 206.115 17.24C206.243 17.368 206.371 17.496 206.499 17.624V20.952L205.859 21.592L201.379 22.552L201.955 24.6L202.147 27.544L203.235 30.36L202.531 32.472ZM187.491 32.024L193.891 30.488C194.19 30.1893 194.403 29.7413 194.531 29.144C194.702 28.504 194.488 27.8853 193.891 27.288L192.227 24.344L190.307 20.504H188.003L187.875 22.808C186.766 22.5947 186.04 23.1067 185.699 24.344C185.486 24.984 185.315 25.5173 185.187 25.944C185.059 26.328 184.974 26.6693 184.931 26.968L187.491 32.024ZM186.147 53.912L192.611 54.808C195 55.0213 196.558 55.0213 197.283 54.808C197.326 54.5947 197.347 54.36 197.347 54.104C197.39 53.8907 197.39 53.6773 197.347 53.464C197.347 53.0373 197.155 52.5253 196.771 51.928C196.387 51.3733 196.195 50.8187 196.195 50.264C196.195 50.0507 196.259 49.9227 196.387 49.88C196.515 49.88 196.536 49.7733 196.451 49.56C196.408 49.3893 196.366 49.0907 196.323 48.664C196.323 48.2373 196.302 47.7893 196.259 47.32C196.216 46.8507 196.152 46.4027 196.067 45.976C196.024 45.5493 195.939 45.272 195.811 45.144C195.555 45.2293 195.128 45.3787 194.531 45.592C193.976 45.8053 193.358 46.0187 192.675 46.232C192.035 46.4453 191.416 46.6587 190.819 46.872C190.222 47.0427 189.795 47.1493 189.539 47.192C189.155 47.96 188.643 48.4293 188.003 48.6C187.406 48.8133 186.744 49.0907 186.019 49.432C186.147 49.7733 186.04 50.1147 185.699 50.456C185.4 50.6693 184.611 51.0533 183.331 51.608C182.008 52.2053 181.262 52.7813 181.091 53.336L186.147 53.912Z" fill="#1C1C1C"/>
</svg>
